<svg width="30" height="16" viewBox="0 0 30 16" fill="none" xmlns="http://www.w3.org/2000/svg">
<path fill-rule="evenodd" clip-rule="evenodd" d="M30 7.70681C30 7.9908 29.8025 8.26316 29.4509 8.46397C29.0993 8.66478 28.6224 8.77759 28.1252 8.77759L6.40388 8.77759L14.4542 13.3734C14.8063 13.5744 15.004 13.8471 15.004 14.1315C15.004 14.4158 14.8063 14.6885 14.4542 14.8896C14.1022 15.0907 13.6247 15.2036 13.1269 15.2036C12.629 15.2036 12.1516 15.0907 11.7995 14.8896L0.550789 8.46492C0.376198 8.36546 0.237679 8.24729 0.143164 8.11721C0.0486507 7.98712 0 7.84766 0 7.70681C0 7.56597 0.0486507 7.42651 0.143164 7.29642C0.237679 7.16633 0.376198 7.04817 0.550789 6.9487L11.7995 0.524029C12.1516 0.322965 12.629 0.21001 13.1269 0.21001C13.6247 0.21001 14.1022 0.322965 14.4542 0.524029C14.8063 0.725092 15.004 0.997793 15.004 1.28214C15.004 1.56649 14.8063 1.83919 14.4542 2.04025L6.40388 6.63603L28.1252 6.63603C28.6224 6.63603 29.0993 6.74885 29.4509 6.94966C29.8025 7.15047 30 7.42282 30 7.70681Z" fill="black"/>
</svg>
