<svg width="30" height="15" viewBox="0 0 30 15" fill="none" xmlns="http://www.w3.org/2000/svg">
<path fill-rule="evenodd" clip-rule="evenodd" d="M0 7.5C0 7.21589 0.197522 6.94342 0.549114 6.74252C0.900705 6.54163 1.37757 6.42877 1.87479 6.42877H23.5961L15.5458 1.83102C15.1937 1.62987 14.996 1.35706 14.996 1.07259C14.996 0.788121 15.1937 0.515303 15.5458 0.314154C15.8978 0.113005 16.3753 0 16.8731 0C17.371 0 17.8484 0.113005 18.2005 0.314154L29.4492 6.74157C29.6238 6.84107 29.7623 6.95929 29.8568 7.08943C29.9513 7.21958 30 7.3591 30 7.5C30 7.64091 29.9513 7.78042 29.8568 7.91057C29.7623 8.04071 29.6238 8.15893 29.4492 8.25844L18.2005 14.6858C17.8484 14.887 17.371 15 16.8731 15C16.3753 15 15.8978 14.887 15.5458 14.6858C15.1937 14.4847 14.996 14.2119 14.996 13.9274C14.996 13.6429 15.1937 13.3701 15.5458 13.169L23.5961 8.57124H1.87479C1.37757 8.57124 0.900705 8.45837 0.549114 8.25748C0.197522 8.05658 0 7.78411 0 7.5Z" fill="#353CF3"/>
</svg>
